<mxfile host="app.diagrams.net" modified="2021-11-13T08:22:39.011Z" agent="5.0 (X11; Linux x86_64) AppleWebKit/537.36 (KHTML, like Gecko) Chrome/92.0.4515.40 Safari/537.36 Edg/92.0.902.9" etag="MwigpbUw-ROV_s4zae1F" version="15.7.3" type="github">
  <diagram id="cg9Qby5wv1we2w4MfTLi" name="Page-1">
    <mxGraphModel dx="1422" dy="725" grid="1" gridSize="10" guides="1" tooltips="1" connect="1" arrows="1" fold="1" page="1" pageScale="1" pageWidth="827" pageHeight="1169" math="0" shadow="0">
      <root>
        <mxCell id="0" />
        <mxCell id="1" parent="0" />
        <mxCell id="pXyBqgtnvhgQYQf3feo4-1" value="银行管理员" style="shape=umlActor;verticalLabelPosition=bottom;verticalAlign=top;html=1;" vertex="1" parent="1">
          <mxGeometry x="320" y="525" width="30" height="60" as="geometry" />
        </mxCell>
        <mxCell id="pXyBqgtnvhgQYQf3feo4-3" value="渠道管理员" style="shape=umlActor;verticalLabelPosition=bottom;verticalAlign=top;html=1;outlineConnect=0;" vertex="1" parent="1">
          <mxGeometry x="80" y="290" width="30" height="60" as="geometry" />
        </mxCell>
        <mxCell id="pXyBqgtnvhgQYQf3feo4-4" value="天津邮储中台" style="rounded=0;whiteSpace=wrap;html=1;fillColor=#dae8fc;strokeColor=#6c8ebf;" vertex="1" parent="1">
          <mxGeometry x="650" y="240" width="160" height="120" as="geometry" />
        </mxCell>
        <mxCell id="pXyBqgtnvhgQYQf3feo4-7" value="&lt;p class=&quot;MsoNormal&quot; style=&quot;margin: 0pt 0pt 0.0001pt ; text-align: justify ; font-family: &amp;#34;times new roman&amp;#34; ; font-size: 10.5pt&quot;&gt;&lt;span style=&quot;font-size: 12pt&quot;&gt;汽车金融渠道&lt;br&gt;进件管理系统&lt;/span&gt;&lt;/p&gt;" style="ellipse;whiteSpace=wrap;html=1;aspect=fixed;fillColor=#ffe6cc;strokeColor=#d79b00;" vertex="1" parent="1">
          <mxGeometry x="390" y="220" width="160" height="160" as="geometry" />
        </mxCell>
        <mxCell id="pXyBqgtnvhgQYQf3feo4-13" value="门店操作员&lt;br&gt;" style="shape=umlActor;verticalLabelPosition=bottom;verticalAlign=top;html=1;outlineConnect=0;" vertex="1" parent="1">
          <mxGeometry x="110" y="130" width="30" height="60" as="geometry" />
        </mxCell>
        <mxCell id="pXyBqgtnvhgQYQf3feo4-16" value="1，录入客户信息，发起视频面签&lt;br&gt;2，上传影像资料，产品金融试算&lt;br&gt;3，进件" style="text;html=1;align=left;verticalAlign=middle;resizable=0;points=[];autosize=1;strokeColor=none;fillColor=none;" vertex="1" parent="1">
          <mxGeometry x="150" y="130" width="190" height="50" as="geometry" />
        </mxCell>
        <mxCell id="pXyBqgtnvhgQYQf3feo4-17" value="1，录入客户信息，发起视频面签&lt;br&gt;2，上传影像资料，产品金融试算&lt;br&gt;3，进件管理&lt;br&gt;4，门店管理，员工管理，岗位管理&lt;br&gt;" style="text;html=1;align=left;verticalAlign=middle;resizable=0;points=[];autosize=1;strokeColor=none;fillColor=none;" vertex="1" parent="1">
          <mxGeometry x="120" y="290" width="200" height="60" as="geometry" />
        </mxCell>
        <mxCell id="pXyBqgtnvhgQYQf3feo4-18" value="1，进件审核，视频面签审核&lt;br&gt;2，渠道管理，问卷管理&lt;br&gt;" style="text;html=1;align=left;verticalAlign=middle;resizable=0;points=[];autosize=1;strokeColor=none;fillColor=none;" vertex="1" parent="1">
          <mxGeometry x="150" y="450" width="170" height="30" as="geometry" />
        </mxCell>
        <mxCell id="pXyBqgtnvhgQYQf3feo4-22" value="银行面审岗" style="shape=umlActor;verticalLabelPosition=bottom;verticalAlign=top;html=1;" vertex="1" parent="1">
          <mxGeometry x="110" y="450" width="30" height="60" as="geometry" />
        </mxCell>
        <mxCell id="pXyBqgtnvhgQYQf3feo4-23" value="1，进件审核，视频面签审核&lt;br&gt;2，渠道管理，问卷管理&lt;br&gt;3，终端设备管理&lt;span&gt;，车型库管理&lt;/span&gt;&lt;span&gt;，产品管理&lt;br&gt;&lt;/span&gt;&lt;div&gt;&lt;div&gt;4，菜单管理&lt;span&gt;，权限管理&lt;/span&gt;&lt;/div&gt;&lt;/div&gt;" style="text;html=1;align=left;verticalAlign=middle;resizable=0;points=[];autosize=1;strokeColor=none;fillColor=none;" vertex="1" parent="1">
          <mxGeometry x="370" y="525" width="240" height="60" as="geometry" />
        </mxCell>
        <mxCell id="pXyBqgtnvhgQYQf3feo4-33" value="" style="endArrow=classic;html=1;rounded=0;edgeStyle=orthogonalEdgeStyle;curved=1;strokeColor=#3399FF;" edge="1" parent="1" target="pXyBqgtnvhgQYQf3feo4-7">
          <mxGeometry width="50" height="50" relative="1" as="geometry">
            <mxPoint x="160" y="200" as="sourcePoint" />
            <mxPoint x="440" y="350" as="targetPoint" />
          </mxGeometry>
        </mxCell>
        <mxCell id="pXyBqgtnvhgQYQf3feo4-34" value="" style="endArrow=classic;html=1;rounded=0;edgeStyle=orthogonalEdgeStyle;curved=1;strokeColor=#3399FF;" edge="1" parent="1" source="pXyBqgtnvhgQYQf3feo4-3" target="pXyBqgtnvhgQYQf3feo4-7">
          <mxGeometry width="50" height="50" relative="1" as="geometry">
            <mxPoint x="219.99999999999991" y="330" as="sourcePoint" />
            <mxPoint x="330" y="290" as="targetPoint" />
            <Array as="points">
              <mxPoint x="260" y="320" />
              <mxPoint x="260" y="300" />
            </Array>
          </mxGeometry>
        </mxCell>
        <mxCell id="pXyBqgtnvhgQYQf3feo4-35" value="" style="endArrow=classic;html=1;rounded=0;exitX=0.741;exitY=-0.067;exitDx=0;exitDy=0;exitPerimeter=0;edgeStyle=orthogonalEdgeStyle;curved=1;strokeColor=#3399FF;" edge="1" parent="1" source="pXyBqgtnvhgQYQf3feo4-18" target="pXyBqgtnvhgQYQf3feo4-7">
          <mxGeometry width="50" height="50" relative="1" as="geometry">
            <mxPoint x="200" y="400" as="sourcePoint" />
            <mxPoint x="520.2240552089236" y="375.98319585933086" as="targetPoint" />
          </mxGeometry>
        </mxCell>
        <mxCell id="pXyBqgtnvhgQYQf3feo4-36" value="" style="endArrow=classic;html=1;rounded=0;exitX=0.188;exitY=-0.05;exitDx=0;exitDy=0;exitPerimeter=0;edgeStyle=orthogonalEdgeStyle;curved=1;strokeColor=#3399FF;" edge="1" parent="1" source="pXyBqgtnvhgQYQf3feo4-23">
          <mxGeometry width="50" height="50" relative="1" as="geometry">
            <mxPoint x="320" y="489.83" as="sourcePoint" />
            <mxPoint x="480" y="390" as="targetPoint" />
          </mxGeometry>
        </mxCell>
        <mxCell id="pXyBqgtnvhgQYQf3feo4-38" value="" style="endArrow=classic;html=1;rounded=0;strokeColor=#3399FF;" edge="1" parent="1" source="pXyBqgtnvhgQYQf3feo4-7" target="pXyBqgtnvhgQYQf3feo4-4">
          <mxGeometry width="50" height="50" relative="1" as="geometry">
            <mxPoint x="540" y="290" as="sourcePoint" />
            <mxPoint x="814.3243243243246" y="384.0540540540542" as="targetPoint" />
          </mxGeometry>
        </mxCell>
      </root>
    </mxGraphModel>
  </diagram>
</mxfile>
